<svg xmlns="http://www.w3.org/2000/svg" xmlns:xlink="http://www.w3.org/1999/xlink" version="1.1" width="440pt" height="325pt" viewBox="0 0 440 325">
<defs>
<clipPath id="clip_0">
<path transform="matrix(1,0,0,-1,-11,336)" d="M0 0H460.8V345.6H0Z"/>
</clipPath>
<clipPath id="clip_1">
<path transform="matrix(1,0,0,-1,-11,336)" d="M47.72 41.96H450V334.8H47.72Z"/>
</clipPath>
<clipPath id="clip_2">
<path transform="matrix(1,0,0,-1,-11,336)" d="M47.72 41.96H450V334.8H47.72Z"/>
</clipPath>
<clipPath id="clip_3">
<path transform="matrix(1,0,0,-1,-11,336)" d="M47.72 41.96H450V334.8H47.72Z"/>
</clipPath>
<clipPath id="clip_4">
<path transform="matrix(1,0,0,-1,-11,336)" d="M47.72 41.96H450V334.8H47.72Z"/>
</clipPath>
<clipPath id="clip_5">
<path transform="matrix(1,0,0,-1,-11,336)" d="M47.72 41.96H450V334.8H47.72Z"/>
</clipPath>
<clipPath id="clip_6">
<path transform="matrix(1,0,0,-1,-11,336)" d="M47.72 41.96H450V334.8H47.72Z"/>
</clipPath>
<clipPath id="clip_7">
<path transform="matrix(1,0,0,-1,-11,336)" d="M47.72 41.96H450V334.8H47.72Z"/>
</clipPath>
<clipPath id="clip_8">
<path transform="matrix(1,0,0,-1,-11,336)" d="M47.72 41.96H450V334.8H47.72Z"/>
</clipPath>
<clipPath id="clip_9">
<path transform="matrix(1,0,0,-1,-11,336)" d="M47.72 41.96H450V334.8H47.72Z"/>
</clipPath>
<clipPath id="clip_10">
<path transform="matrix(1,0,0,-1,-11,336)" d="M47.72 41.96H450V334.8H47.72Z"/>
</clipPath>
<clipPath id="clip_11">
<path transform="matrix(1,0,0,-1,-11,336)" d="M47.72 41.96H450V334.8H47.72Z"/>
</clipPath>
<clipPath id="clip_12">
<path transform="matrix(1,0,0,-1,-11,336)" d="M47.72 41.96H450V334.8H47.72Z"/>
</clipPath>
<clipPath id="clip_13">
<path transform="matrix(1,0,0,-1,-11,336)" d="M47.72 41.96H450V334.8H47.72Z"/>
</clipPath>
<clipPath id="clip_14">
<path transform="matrix(1,0,0,-1,-11,336)" d="M47.72 41.96H450V334.8H47.72Z"/>
</clipPath>
<clipPath id="clip_15">
<path transform="matrix(1,0,0,-1,-11,336)" d="M47.72 41.96H450V334.8H47.72Z"/>
</clipPath>
<clipPath id="clip_16">
<path transform="matrix(1,0,0,-1,-11,336)" d="M47.72 41.96H450V334.8H47.72Z"/>
</clipPath>
<clipPath id="clip_17">
<path transform="matrix(1,0,0,-1,-11,336)" d="M47.72 41.96H450V334.8H47.72Z"/>
</clipPath>
<clipPath id="clip_18">
<path transform="matrix(1,0,0,-1,-11,336)" d="M47.72 41.96H450V334.8H47.72Z"/>
</clipPath>
<clipPath id="clip_19">
<path transform="matrix(1,0,0,-1,-11,336)" d="M47.72 41.96H450V334.8H47.72Z"/>
</clipPath>
<clipPath id="clip_20">
<path transform="matrix(1,0,0,-1,-11,336)" d="M47.72 41.96H450V334.8H47.72Z"/>
</clipPath>
<clipPath id="clip_21">
<path transform="matrix(1,0,0,-1,-11,336)" d="M47.72 41.96H450V334.8H47.72Z"/>
</clipPath>
<clipPath id="clip_22">
<path transform="matrix(1,0,0,-1,-11,336)" d="M47.72 41.96H450V334.8H47.72Z"/>
</clipPath>
<clipPath id="clip_23">
<path transform="matrix(1,0,0,-1,-11,336)" d="M47.72 41.96H450V334.8H47.72Z"/>
</clipPath>
<clipPath id="clip_24">
<path transform="matrix(1,0,0,-1,-11,336)" d="M47.72 41.96H450V334.8H47.72Z"/>
</clipPath>
<clipPath id="clip_25">
<path transform="matrix(1,0,0,-1,-11,336)" d="M47.72 41.96H450V334.8H47.72Z"/>
</clipPath>
<clipPath id="clip_26">
<path transform="matrix(1,0,0,-1,-11,336)" d="M47.72 41.96H450V334.8H47.72Z"/>
</clipPath>
<clipPath id="clip_27">
<path transform="matrix(1,0,0,-1,-11,336)" d="M47.72 41.96H450V334.8H47.72Z"/>
</clipPath>
<clipPath id="clip_28">
<path transform="matrix(1,0,0,-1,-11,336)" d="M47.72 41.96H450V334.8H47.72Z"/>
</clipPath>
<clipPath id="clip_29">
<path transform="matrix(1,0,0,-1,-11,336)" d="M47.72 41.96H450V334.8H47.72Z"/>
</clipPath>
<clipPath id="clip_30">
<path transform="matrix(1,0,0,-1,-11,336)" d="M47.72 41.96H450V334.8H47.72Z"/>
</clipPath>
<clipPath id="clip_31">
<path transform="matrix(1,0,0,-1,-11,336)" d="M47.72 41.96H450V334.8H47.72Z"/>
</clipPath>
<clipPath id="clip_32">
<path transform="matrix(1,0,0,-1,-11,336)" d="M47.72 41.96H450V334.8H47.72Z"/>
</clipPath>
<clipPath id="clip_33">
<path transform="matrix(1,0,0,-1,-11,336)" d="M47.72 41.96H450V334.8H47.72Z"/>
</clipPath>
<clipPath id="clip_34">
<path transform="matrix(1,0,0,-1,-11,336)" d="M47.72 41.96H450V334.8H47.72Z"/>
</clipPath>
<clipPath id="clip_35">
<path transform="matrix(1,0,0,-1,-11,336)" d="M47.72 41.96H450V334.8H47.72Z"/>
</clipPath>
<clipPath id="clip_36">
<path transform="matrix(1,0,0,-1,-11,336)" d="M47.72 41.96H450V334.8H47.72Z"/>
</clipPath>
<clipPath id="clip_37">
<path transform="matrix(1,0,0,-1,-11,336)" d="M47.72 41.96H450V334.8H47.72Z"/>
</clipPath>
<clipPath id="clip_38">
<path transform="matrix(1,0,0,-1,-11,336)" d="M47.72 41.96H450V334.8H47.72Z"/>
</clipPath>
<clipPath id="clip_39">
<path transform="matrix(1,0,0,-1,-11,336)" d="M47.72 41.96H450V334.8H47.72Z"/>
</clipPath>
<clipPath id="clip_40">
<path transform="matrix(1,0,0,-1,-11,336)" d="M47.72 41.96H450V334.8H47.72Z"/>
</clipPath>
<clipPath id="clip_41">
<path transform="matrix(1,0,0,-1,-11,336)" d="M47.72 41.96H450V334.8H47.72Z"/>
</clipPath>
<clipPath id="clip_42">
<path transform="matrix(1,0,0,-1,-11,336)" d="M47.72 41.96H450V334.8H47.72Z"/>
</clipPath>
<clipPath id="clip_43">
<path transform="matrix(1,0,0,-1,-11,336)" d="M47.72 41.96H450V334.8H47.72Z"/>
</clipPath>
<clipPath id="clip_44">
<path transform="matrix(1,0,0,-1,-11,336)" d="M47.72 41.96H450V334.8H47.72Z"/>
</clipPath>
<clipPath id="clip_45">
<path transform="matrix(1,0,0,-1,-11,336)" d="M47.72 41.96H450V334.8H47.72Z"/>
</clipPath>
<clipPath id="clip_46">
<path transform="matrix(1,0,0,-1,-11,336)" d="M47.72 41.96H450V334.8H47.72Z"/>
</clipPath>
<clipPath id="clip_47">
<path transform="matrix(1,0,0,-1,-11,336)" d="M47.72 41.96H450V334.8H47.72Z"/>
</clipPath>
<clipPath id="clip_48">
<path transform="matrix(1,0,0,-1,-11,336)" d="M47.72 41.96H450V334.8H47.72Z"/>
</clipPath>
<clipPath id="clip_49">
<path transform="matrix(1,0,0,-1,-11,336)" d="M47.72 41.96H450V334.8H47.72Z"/>
</clipPath>
<clipPath id="clip_50">
<path transform="matrix(1,0,0,-1,-11,336)" d="M47.72 41.96H450V334.8H47.72Z"/>
</clipPath>
<clipPath id="clip_51">
<path transform="matrix(1,0,0,-1,-11,336)" d="M47.72 41.96H450V334.8H47.72Z"/>
</clipPath>
<clipPath id="clip_52">
<path transform="matrix(1,0,0,-1,-11,336)" d="M47.72 41.96H450V334.8H47.72Z"/>
</clipPath>
<clipPath id="clip_53">
<path transform="matrix(1,0,0,-1,-11,336)" d="M47.72 41.96H450V334.8H47.72Z"/>
</clipPath>
<clipPath id="clip_54">
<path transform="matrix(1,0,0,-1,-11,336)" d="M47.72 41.96H450V334.8H47.72Z"/>
</clipPath>
<clipPath id="clip_55">
<path transform="matrix(1,0,0,-1,-11,336)" d="M47.72 41.96H450V334.8H47.72Z"/>
</clipPath>
<clipPath id="clip_56">
<path transform="matrix(1,0,0,-1,-11,336)" d="M47.72 41.96H450V334.8H47.72Z"/>
</clipPath>
<clipPath id="clip_57">
<path transform="matrix(1,0,0,-1,-11,336)" d="M47.72 41.96H450V334.8H47.72Z"/>
</clipPath>
<clipPath id="clip_58">
<path transform="matrix(1,0,0,-1,-11,336)" d="M47.72 41.96H450V334.8H47.72Z"/>
</clipPath>
<clipPath id="clip_59">
<path transform="matrix(1,0,0,-1,-11,336)" d="M47.72 41.96H450V334.8H47.72Z"/>
</clipPath>
<clipPath id="clip_60">
<path transform="matrix(1,0,0,-1,-11,336)" d="M47.72 41.96H450V334.8H47.72Z"/>
</clipPath>
<clipPath id="clip_61">
<path transform="matrix(1,0,0,-1,-11,336)" d="M47.72 41.96H450V334.8H47.72Z"/>
</clipPath>
<clipPath id="clip_62">
<path transform="matrix(1,0,0,-1,-11,336)" d="M47.72 41.96H450V334.8H47.72Z"/>
</clipPath>
<clipPath id="clip_63">
<path transform="matrix(1,0,0,-1,-11,336)" d="M47.72 41.96H450V334.8H47.72Z"/>
</clipPath>
<clipPath id="clip_64">
<path transform="matrix(1,0,0,-1,-11,336)" d="M47.72 41.96H450V334.8H47.72Z"/>
</clipPath>
<clipPath id="clip_65">
<path transform="matrix(1,0,0,-1,-11,336)" d="M47.72 41.96H450V334.8H47.72Z"/>
</clipPath>
<clipPath id="clip_66">
<path transform="matrix(1,0,0,-1,-11,336)" d="M47.72 41.96H450V334.8H47.72Z"/>
</clipPath>
<clipPath id="clip_67">
<path transform="matrix(1,0,0,-1,-11,336)" d="M47.72 41.96H450V334.8H47.72Z"/>
</clipPath>
<clipPath id="clip_68">
<path transform="matrix(1,0,0,-1,-11,336)" d="M47.72 41.96H450V334.8H47.72Z"/>
</clipPath>
<clipPath id="clip_69">
<path transform="matrix(1,0,0,-1,-11,336)" d="M47.72 41.96H450V334.8H47.72Z"/>
</clipPath>
<clipPath id="clip_70">
<path transform="matrix(1,0,0,-1,-11,336)" d="M47.72 41.96H450V334.8H47.72Z"/>
</clipPath>
<clipPath id="clip_71">
<path transform="matrix(1,0,0,-1,-11,336)" d="M47.72 41.96H450V334.8H47.72Z"/>
</clipPath>
<clipPath id="clip_72">
<path transform="matrix(1,0,0,-1,-11,336)" d="M47.72 41.96H450V334.8H47.72Z"/>
</clipPath>
<clipPath id="clip_73">
<path transform="matrix(1,0,0,-1,-11,336)" d="M47.72 41.96H450V334.8H47.72Z"/>
</clipPath>
<clipPath id="clip_74">
<path transform="matrix(1,0,0,-1,-11,336)" d="M47.72 41.96H450V334.8H47.72Z"/>
</clipPath>
<clipPath id="clip_75">
<path transform="matrix(1,0,0,-1,-11,336)" d="M47.72 41.96H450V334.8H47.72Z"/>
</clipPath>
<clipPath id="clip_76">
<path transform="matrix(1,0,0,-1,-11,336)" d="M47.72 41.96H450V334.8H47.72Z"/>
</clipPath>
<clipPath id="clip_77">
<path transform="matrix(1,0,0,-1,-11,336)" d="M47.72 41.96H450V334.8H47.72Z"/>
</clipPath>
<clipPath id="clip_78">
<path transform="matrix(1,0,0,-1,-11,336)" d="M47.72 41.96H450V334.8H47.72Z"/>
</clipPath>
<clipPath id="clip_79">
<path transform="matrix(1,0,0,-1,-11,336)" d="M47.72 41.96H450V334.8H47.72Z"/>
</clipPath>
<clipPath id="clip_80">
<path transform="matrix(1,0,0,-1,-11,336)" d="M47.72 41.96H450V334.8H47.72Z"/>
</clipPath>
<clipPath id="clip_81">
<path transform="matrix(1,0,0,-1,-11,336)" d="M47.72 41.96H450V334.8H47.72Z"/>
</clipPath>
<clipPath id="clip_82">
<path transform="matrix(1,0,0,-1,-11,336)" d="M47.72 41.96H450V334.8H47.72Z"/>
</clipPath>
<clipPath id="clip_83">
<path transform="matrix(1,0,0,-1,-11,336)" d="M47.72 41.96H450V334.8H47.72Z"/>
</clipPath>
<clipPath id="clip_84">
<path transform="matrix(1,0,0,-1,-11,336)" d="M47.72 41.96H450V334.8H47.72Z"/>
</clipPath>
<clipPath id="clip_85">
<path transform="matrix(1,0,0,-1,-11,336)" d="M47.72 41.96H450V334.8H47.72Z"/>
</clipPath>
<clipPath id="clip_86">
<path transform="matrix(1,0,0,-1,-11,336)" d="M47.72 41.96H450V334.8H47.72Z"/>
</clipPath>
<clipPath id="clip_87">
<path transform="matrix(1,0,0,-1,-11,336)" d="M47.72 41.96H450V334.8H47.72Z"/>
</clipPath>
<clipPath id="clip_88">
<path transform="matrix(1,0,0,-1,-11,336)" d="M47.72 41.96H450V334.8H47.72Z"/>
</clipPath>
<clipPath id="clip_89">
<path transform="matrix(1,0,0,-1,-11,336)" d="M47.72 41.96H450V334.8H47.72Z"/>
</clipPath>
<clipPath id="clip_90">
<path transform="matrix(1,0,0,-1,-11,336)" d="M47.72 41.96H450V334.8H47.72Z"/>
</clipPath>
<clipPath id="clip_91">
<path transform="matrix(1,0,0,-1,-11,336)" d="M47.72 41.96H450V334.8H47.72Z"/>
</clipPath>
<clipPath id="clip_92">
<path transform="matrix(1,0,0,-1,-11,336)" d="M47.72 41.96H450V334.8H47.72Z"/>
</clipPath>
<clipPath id="clip_93">
<path transform="matrix(1,0,0,-1,-11,336)" d="M47.72 41.96H450V334.8H47.72Z"/>
</clipPath>
<clipPath id="clip_94">
<path transform="matrix(1,0,0,-1,-11,336)" d="M47.72 41.96H450V334.8H47.72Z"/>
</clipPath>
<clipPath id="clip_95">
<path transform="matrix(1,0,0,-1,-11,336)" d="M47.72 41.96H450V334.8H47.72Z"/>
</clipPath>
<clipPath id="clip_96">
<path transform="matrix(1,0,0,-1,-11,336)" d="M47.72 41.96H450V334.8H47.72Z"/>
</clipPath>
<clipPath id="clip_97">
<path transform="matrix(1,0,0,-1,-11,336)" d="M47.72 41.96H450V334.8H47.72Z"/>
</clipPath>
<clipPath id="clip_98">
<path transform="matrix(1,0,0,-1,-11,336)" d="M47.72 41.96H450V334.8H47.72Z"/>
</clipPath>
<clipPath id="clip_99">
<path transform="matrix(1,0,0,-1,-11,336)" d="M47.72 41.96H450V334.8H47.72Z"/>
</clipPath>
<clipPath id="clip_100">
<path transform="matrix(1,0,0,-1,-11,336)" d="M47.72 41.96H450V334.8H47.72Z"/>
</clipPath>
<clipPath id="clip_101">
<path transform="matrix(1,0,0,-1,-11,336)" d="M47.72 41.96H450V334.8H47.72Z"/>
</clipPath>
<clipPath id="clip_102">
<path transform="matrix(1,0,0,-1,-11,336)" d="M47.72 41.96H450V334.8H47.72Z"/>
</clipPath>
<clipPath id="clip_103">
<path transform="matrix(1,0,0,-1,-11,336)" d="M47.72 41.96H450V334.8H47.72Z"/>
</clipPath>
<clipPath id="clip_104">
<path transform="matrix(1,0,0,-1,-11,336)" d="M47.72 41.96H450V334.8H47.72Z"/>
</clipPath>
<clipPath id="clip_105">
<path transform="matrix(1,0,0,-1,-11,336)" d="M47.72 41.96H450V334.8H47.72Z"/>
</clipPath>
<clipPath id="clip_106">
<path transform="matrix(1,0,0,-1,-11,336)" d="M47.72 41.96H450V334.8H47.72Z"/>
</clipPath>
<clipPath id="clip_107">
<path transform="matrix(1,0,0,-1,-11,336)" d="M47.72 41.96H450V334.8H47.72Z"/>
</clipPath>
<clipPath id="clip_108">
<path transform="matrix(1,0,0,-1,-11,336)" d="M47.72 41.96H450V334.8H47.72Z"/>
</clipPath>
<clipPath id="clip_109">
<path transform="matrix(1,0,0,-1,-11,336)" d="M47.72 41.96H450V334.8H47.72Z"/>
</clipPath>
<clipPath id="clip_110">
<path transform="matrix(1,0,0,-1,-11,336)" d="M47.72 41.96H450V334.8H47.72Z"/>
</clipPath>
<clipPath id="clip_111">
<path transform="matrix(1,0,0,-1,-11,336)" d="M47.72 41.96H450V334.8H47.72Z"/>
</clipPath>
<clipPath id="clip_112">
<path transform="matrix(1,0,0,-1,-11,336)" d="M47.72 41.96H450V334.8H47.72Z"/>
</clipPath>
<clipPath id="clip_113">
<path transform="matrix(1,0,0,-1,-11,336)" d="M47.72 41.96H450V334.8H47.72Z"/>
</clipPath>
<clipPath id="clip_114">
<path transform="matrix(1,0,0,-1,-11,336)" d="M47.72 41.96H450V334.8H47.72Z"/>
</clipPath>
<clipPath id="clip_115">
<path transform="matrix(1,0,0,-1,-11,336)" d="M47.72 41.96H450V334.8H47.72Z"/>
</clipPath>
<clipPath id="clip_116">
<path transform="matrix(1,0,0,-1,-11,336)" d="M47.72 41.96H450V334.8H47.72Z"/>
</clipPath>
<clipPath id="clip_117">
<path transform="matrix(1,0,0,-1,-11,336)" d="M47.72 41.96H450V334.8H47.72Z"/>
</clipPath>
<clipPath id="clip_118">
<path transform="matrix(1,0,0,-1,-11,336)" d="M47.72 41.96H450V334.8H47.72Z"/>
</clipPath>
<clipPath id="clip_119">
<path transform="matrix(1,0,0,-1,-11,336)" d="M47.72 41.96H450V334.8H47.72Z"/>
</clipPath>
<clipPath id="clip_120">
<path transform="matrix(1,0,0,-1,-11,336)" d="M47.72 41.96H450V334.8H47.72Z"/>
</clipPath>
<clipPath id="clip_121">
<path transform="matrix(1,0,0,-1,-11,336)" d="M47.72 41.96H450V334.8H47.72Z"/>
</clipPath>
<clipPath id="clip_122">
<path transform="matrix(1,0,0,-1,-11,336)" d="M47.72 41.96H450V334.8H47.72Z"/>
</clipPath>
<clipPath id="clip_123">
<path transform="matrix(1,0,0,-1,-11,336)" d="M47.72 41.96H450V334.8H47.72Z"/>
</clipPath>
<clipPath id="clip_124">
<path transform="matrix(1,0,0,-1,-11,336)" d="M47.72 41.96H450V334.8H47.72Z"/>
</clipPath>
<clipPath id="clip_125">
<path transform="matrix(1,0,0,-1,-11,336)" d="M47.72 41.96H450V334.8H47.72Z"/>
</clipPath>
<clipPath id="clip_126">
<path transform="matrix(1,0,0,-1,-11,336)" d="M47.72 41.96H450V334.8H47.72Z"/>
</clipPath>
<clipPath id="clip_127">
<path transform="matrix(1,0,0,-1,-11,336)" d="M47.72 41.96H450V334.8H47.72Z"/>
</clipPath>
<clipPath id="clip_128">
<path transform="matrix(1,0,0,-1,-11,336)" d="M47.72 41.96H450V334.8H47.72Z"/>
</clipPath>
<clipPath id="clip_129">
<path transform="matrix(1,0,0,-1,-11,336)" d="M47.72 41.96H450V334.8H47.72Z"/>
</clipPath>
<clipPath id="clip_130">
<path transform="matrix(1,0,0,-1,-11,336)" d="M47.72 41.96H450V334.8H47.72Z"/>
</clipPath>
<clipPath id="clip_131">
<path transform="matrix(1,0,0,-1,-11,336)" d="M47.72 41.96H450V334.8H47.72Z"/>
</clipPath>
<clipPath id="clip_132">
<path transform="matrix(1,0,0,-1,-11,336)" d="M47.72 41.96H450V334.8H47.72Z"/>
</clipPath>
<clipPath id="clip_133">
<path transform="matrix(1,0,0,-1,-11,336)" d="M47.72 41.96H450V334.8H47.72Z"/>
</clipPath>
<clipPath id="clip_134">
<path transform="matrix(1,0,0,-1,-11,336)" d="M47.72 41.96H450V334.8H47.72Z"/>
</clipPath>
<clipPath id="clip_135">
<path transform="matrix(1,0,0,-1,-11,336)" d="M47.72 41.96H450V334.8H47.72Z"/>
</clipPath>
<clipPath id="clip_136">
<path transform="matrix(1,0,0,-1,-11,336)" d="M47.72 41.96H450V334.8H47.72Z"/>
</clipPath>
<clipPath id="clip_137">
<path transform="matrix(1,0,0,-1,-11,336)" d="M47.72 41.96H450V334.8H47.72Z"/>
</clipPath>
<clipPath id="clip_138">
<path transform="matrix(1,0,0,-1,-11,336)" d="M47.72 41.96H450V334.8H47.72Z"/>
</clipPath>
<clipPath id="clip_139">
<path transform="matrix(1,0,0,-1,-11,336)" d="M47.72 41.96H450V334.8H47.72Z"/>
</clipPath>
<clipPath id="clip_140">
<path transform="matrix(1,0,0,-1,-11,336)" d="M47.72 41.96H450V334.8H47.72Z"/>
</clipPath>
<clipPath id="clip_141">
<path transform="matrix(1,0,0,-1,-11,336)" d="M47.72 41.96H450V334.8H47.72Z"/>
</clipPath>
<clipPath id="clip_142">
<path transform="matrix(1,0,0,-1,-11,336)" d="M47.72 41.96H450V334.8H47.72Z"/>
</clipPath>
<clipPath id="clip_143">
<path transform="matrix(1,0,0,-1,-11,336)" d="M47.72 41.96H450V334.8H47.72Z"/>
</clipPath>
<clipPath id="clip_144">
<path transform="matrix(1,0,0,-1,-11,336)" d="M47.72 41.96H450V334.8H47.72Z"/>
</clipPath>
<clipPath id="clip_145">
<path transform="matrix(1,0,0,-1,-11,336)" d="M47.72 41.96H450V334.8H47.72Z"/>
</clipPath>
<clipPath id="clip_146">
<path transform="matrix(1,0,0,-1,-11,336)" d="M47.72 41.96H450V334.8H47.72Z"/>
</clipPath>
<clipPath id="clip_147">
<path transform="matrix(1,0,0,-1,-11,336)" d="M47.72 41.96H450V334.8H47.72Z"/>
</clipPath>
<clipPath id="clip_148">
<path transform="matrix(1,0,0,-1,-11,336)" d="M47.72 41.96H450V334.8H47.72Z"/>
</clipPath>
<clipPath id="clip_149">
<path transform="matrix(1,0,0,-1,-11,336)" d="M47.72 41.96H450V334.8H47.72Z"/>
</clipPath>
<clipPath id="clip_150">
<path transform="matrix(1,0,0,-1,-11,336)" d="M47.72 41.96H450V334.8H47.72Z"/>
</clipPath>
<clipPath id="clip_151">
<path transform="matrix(1,0,0,-1,-11,336)" d="M47.72 41.96H450V334.8H47.72Z"/>
</clipPath>
<clipPath id="clip_152">
<path transform="matrix(1,0,0,-1,-11,336)" d="M47.72 41.96H450V334.8H47.72Z"/>
</clipPath>
<clipPath id="clip_153">
<path transform="matrix(1,0,0,-1,-11,336)" d="M47.72 41.96H450V334.8H47.72Z"/>
</clipPath>
<clipPath id="clip_154">
<path transform="matrix(1,0,0,-1,-11,336)" d="M47.72 41.96H450V334.8H47.72Z"/>
</clipPath>
<clipPath id="clip_155">
<path transform="matrix(1,0,0,-1,-11,336)" d="M47.72 41.96H450V334.8H47.72Z"/>
</clipPath>
<clipPath id="clip_156">
<path transform="matrix(1,0,0,-1,-11,336)" d="M47.72 41.96H450V334.8H47.72Z"/>
</clipPath>
<clipPath id="clip_157">
<path transform="matrix(1,0,0,-1,-11,336)" d="M47.72 41.96H450V334.8H47.72Z"/>
</clipPath>
<clipPath id="clip_158">
<path transform="matrix(1,0,0,-1,-11,336)" d="M47.72 41.96H450V334.8H47.72Z"/>
</clipPath>
<clipPath id="clip_159">
<path transform="matrix(1,0,0,-1,-11,336)" d="M47.72 41.96H450V334.8H47.72Z"/>
</clipPath>
<clipPath id="clip_160">
<path transform="matrix(1,0,0,-1,-11,336)" d="M47.72 41.96H450V334.8H47.72Z"/>
</clipPath>
<clipPath id="clip_161">
<path transform="matrix(1,0,0,-1,-11,336)" d="M47.72 41.96H450V334.8H47.72Z"/>
</clipPath>
<clipPath id="clip_162">
<path transform="matrix(1,0,0,-1,-11,336)" d="M47.72 41.96H450V334.8H47.72Z"/>
</clipPath>
<clipPath id="clip_163">
<path transform="matrix(1,0,0,-1,-11,336)" d="M47.72 41.96H450V334.8H47.72Z"/>
</clipPath>
<clipPath id="clip_164">
<path transform="matrix(1,0,0,-1,-11,336)" d="M47.72 41.96H450V334.8H47.72Z"/>
</clipPath>
<clipPath id="clip_165">
<path transform="matrix(1,0,0,-1,-11,336)" d="M47.72 41.96H450V334.8H47.72Z"/>
</clipPath>
<clipPath id="clip_166">
<path transform="matrix(1,0,0,-1,-11,336)" d="M47.72 41.96H450V334.8H47.72Z"/>
</clipPath>
<clipPath id="clip_167">
<path transform="matrix(1,0,0,-1,-11,336)" d="M47.72 41.96H450V334.8H47.72Z"/>
</clipPath>
<clipPath id="clip_168">
<path transform="matrix(1,0,0,-1,-11,336)" d="M47.72 41.96H450V334.8H47.72Z"/>
</clipPath>
<clipPath id="clip_169">
<path transform="matrix(1,0,0,-1,-11,336)" d="M47.72 41.96H450V334.8H47.72Z"/>
</clipPath>
<clipPath id="clip_170">
<path transform="matrix(1,0,0,-1,-11,336)" d="M47.72 41.96H450V334.8H47.72Z"/>
</clipPath>
<clipPath id="clip_171">
<path transform="matrix(1,0,0,-1,-11,336)" d="M47.72 41.96H450V334.8H47.72Z"/>
</clipPath>
<clipPath id="clip_172">
<path transform="matrix(1,0,0,-1,-11,336)" d="M47.72 41.96H450V334.8H47.72Z"/>
</clipPath>
<clipPath id="clip_173">
<path transform="matrix(1,0,0,-1,-11,336)" d="M47.72 41.96H450V334.8H47.72Z"/>
</clipPath>
<clipPath id="clip_174">
<path transform="matrix(1,0,0,-1,-11,336)" d="M47.72 41.96H450V334.8H47.72Z"/>
</clipPath>
<clipPath id="clip_175">
<path transform="matrix(1,0,0,-1,-11,336)" d="M47.72 41.96H450V334.8H47.72Z"/>
</clipPath>
<clipPath id="clip_176">
<path transform="matrix(1,0,0,-1,-11,336)" d="M47.72 41.96H450V334.8H47.72Z"/>
</clipPath>
<clipPath id="clip_177">
<path transform="matrix(1,0,0,-1,-11,336)" d="M47.72 41.96H450V334.8H47.72Z"/>
</clipPath>
<clipPath id="clip_178">
<path transform="matrix(1,0,0,-1,-11,336)" d="M47.72 41.96H450V334.8H47.72Z"/>
</clipPath>
<clipPath id="clip_179">
<path transform="matrix(1,0,0,-1,-11,336)" d="M47.72 41.96H450V334.8H47.72Z"/>
</clipPath>
<clipPath id="clip_180">
<path transform="matrix(1,0,0,-1,-11,336)" d="M47.72 41.96H450V334.8H47.72Z"/>
</clipPath>
<clipPath id="clip_181">
<path transform="matrix(1,0,0,-1,-11,336)" d="M47.72 41.96H450V334.8H47.72Z"/>
</clipPath>
<clipPath id="clip_182">
<path transform="matrix(1,0,0,-1,-11,336)" d="M47.72 41.96H450V334.8H47.72Z"/>
</clipPath>
<clipPath id="clip_183">
<path transform="matrix(1,0,0,-1,-11,336)" d="M47.72 41.96H450V334.8H47.72Z"/>
</clipPath>
<clipPath id="clip_184">
<path transform="matrix(1,0,0,-1,-11,336)" d="M47.72 41.96H450V334.8H47.72Z"/>
</clipPath>
<clipPath id="clip_185">
<path transform="matrix(1,0,0,-1,-11,336)" d="M47.72 41.96H450V334.8H47.72Z"/>
</clipPath>
<clipPath id="clip_186">
<path transform="matrix(1,0,0,-1,-11,336)" d="M47.72 41.96H450V334.8H47.72Z"/>
</clipPath>
<clipPath id="clip_187">
<path transform="matrix(1,0,0,-1,-11,336)" d="M47.72 41.96H450V334.8H47.72Z"/>
</clipPath>
<clipPath id="clip_188">
<path transform="matrix(1,0,0,-1,-11,336)" d="M47.72 41.96H450V334.8H47.72Z"/>
</clipPath>
<clipPath id="clip_189">
<path transform="matrix(1,0,0,-1,-11,336)" d="M47.72 41.96H450V334.8H47.72Z"/>
</clipPath>
<clipPath id="clip_190">
<path transform="matrix(1,0,0,-1,-11,336)" d="M47.72 41.96H450V334.8H47.72Z"/>
</clipPath>
<clipPath id="clip_191">
<path transform="matrix(1,0,0,-1,-11,336)" d="M47.72 41.96H450V334.8H47.72Z"/>
</clipPath>
<clipPath id="clip_192">
<path transform="matrix(1,0,0,-1,-11,336)" d="M47.72 41.96H450V334.8H47.72Z"/>
</clipPath>
<clipPath id="clip_193">
<path transform="matrix(1,0,0,-1,-11,336)" d="M47.72 41.96H450V334.8H47.72Z"/>
</clipPath>
<clipPath id="clip_194">
<path transform="matrix(1,0,0,-1,-11,336)" d="M47.72 41.96H450V334.8H47.72Z"/>
</clipPath>
<clipPath id="clip_195">
<path transform="matrix(1,0,0,-1,-11,336)" d="M47.72 41.96H450V334.8H47.72Z"/>
</clipPath>
<clipPath id="clip_196">
<path transform="matrix(1,0,0,-1,-11,336)" d="M47.72 41.96H450V334.8H47.72Z"/>
</clipPath>
<clipPath id="clip_197">
<path transform="matrix(1,0,0,-1,-11,336)" d="M47.72 41.96H450V334.8H47.72Z"/>
</clipPath>
<clipPath id="clip_198">
<path transform="matrix(1,0,0,-1,-11,336)" d="M47.72 41.96H450V334.8H47.72Z"/>
</clipPath>
<clipPath id="clip_199">
<path transform="matrix(1,0,0,-1,-11,336)" d="M47.72 41.96H450V334.8H47.72Z"/>
</clipPath>
<clipPath id="clip_200">
<path transform="matrix(1,0,0,-1,-11,336)" d="M47.72 41.96H450V334.8H47.72Z"/>
</clipPath>
<clipPath id="clip_201">
<path transform="matrix(1,0,0,-1,-11,336)" d="M47.72 41.96H450V334.8H47.72Z"/>
</clipPath>
<clipPath id="clip_202">
<path transform="matrix(1,0,0,-1,-11,336)" d="M47.72 41.96H450V334.8H47.72Z"/>
</clipPath>
<clipPath id="clip_203">
<path transform="matrix(1,0,0,-1,-11,336)" d="M47.72 41.96H450V334.8H47.72Z"/>
</clipPath>
<clipPath id="clip_204">
<path transform="matrix(1,0,0,-1,-11,336)" d="M47.72 41.96H450V334.8H47.72Z"/>
</clipPath>
<clipPath id="clip_205">
<path transform="matrix(1,0,0,-1,-11,336)" d="M47.72 41.96H450V334.8H47.72Z"/>
</clipPath>
<clipPath id="clip_206">
<path transform="matrix(1,0,0,-1,-11,336)" d="M47.72 41.96H450V334.8H47.72Z"/>
</clipPath>
<clipPath id="clip_207">
<path transform="matrix(1,0,0,-1,-11,336)" d="M47.72 41.96H450V334.8H47.72Z"/>
</clipPath>
<clipPath id="clip_208">
<path transform="matrix(1,0,0,-1,-11,336)" d="M47.72 41.96H450V334.8H47.72Z"/>
</clipPath>
<clipPath id="clip_209">
<path transform="matrix(1,0,0,-1,-11,336)" d="M47.72 41.96H450V334.8H47.72Z"/>
</clipPath>
<clipPath id="clip_210">
<path transform="matrix(1,0,0,-1,-11,336)" d="M47.72 41.96H450V334.8H47.72Z"/>
</clipPath>
<clipPath id="clip_211">
<path transform="matrix(1,0,0,-1,-11,336)" d="M47.72 41.96H450V334.8H47.72Z"/>
</clipPath>
<clipPath id="clip_212">
<path transform="matrix(1,0,0,-1,-11,336)" d="M47.72 41.96H450V334.8H47.72Z"/>
</clipPath>
<clipPath id="clip_213">
<path transform="matrix(1,0,0,-1,-11,336)" d="M47.72 41.96H450V334.8H47.72Z"/>
</clipPath>
<clipPath id="clip_214">
<path transform="matrix(1,0,0,-1,-11,336)" d="M47.72 41.96H450V334.8H47.72Z"/>
</clipPath>
<clipPath id="clip_215">
<path transform="matrix(1,0,0,-1,-11,336)" d="M47.72 41.96H450V334.8H47.72Z"/>
</clipPath>
<clipPath id="clip_216">
<path transform="matrix(1,0,0,-1,-11,336)" d="M47.72 41.96H450V334.8H47.72Z"/>
</clipPath>
<clipPath id="clip_217">
<path transform="matrix(1,0,0,-1,-11,336)" d="M47.72 41.96H450V334.8H47.72Z"/>
</clipPath>
<clipPath id="clip_218">
<path transform="matrix(1,0,0,-1,-11,336)" d="M47.72 41.96H450V334.8H47.72Z"/>
</clipPath>
<clipPath id="clip_219">
<path transform="matrix(1,0,0,-1,-11,336)" d="M47.72 41.96H450V334.8H47.72Z"/>
</clipPath>
<clipPath id="clip_220">
<path transform="matrix(1,0,0,-1,-11,336)" d="M47.72 41.96H450V334.8H47.72Z"/>
</clipPath>
<clipPath id="clip_221">
<path transform="matrix(1,0,0,-1,-11,336)" d="M47.72 41.96H450V334.8H47.72Z"/>
</clipPath>
<clipPath id="clip_222">
<path transform="matrix(1,0,0,-1,-11,336)" d="M47.72 41.96H450V334.8H47.72Z"/>
</clipPath>
<clipPath id="clip_223">
<path transform="matrix(1,0,0,-1,-11,336)" d="M47.72 41.96H450V334.8H47.72Z"/>
</clipPath>
</defs>
<g clip-path="url(#clip_0)">
<path transform="matrix(1,0,0,-1,-11,336)" d="M0 0H460.8V345.6H0Z" fill="#ffffff"/>
<path transform="matrix(1,0,0,-1,-11,336)" d="M47.72 41.96H450V334.8H47.72Z" fill="#ffffff"/>
<g clip-path="url(#clip_1)">
<path transform="matrix(1,0,0,-1,-11,336)" d="M66.005458 41.96H67.64541V320.85523H66.005458Z" fill="#ffa500"/>
</g>
<g clip-path="url(#clip_2)">
<path transform="matrix(1,0,0,-1,-11,336)" d="M67.64541 41.96H69.285358V300.30445H67.64541Z" fill="#ffa500"/>
</g>
<g clip-path="url(#clip_3)">
<path transform="matrix(1,0,0,-1,-11,336)" d="M69.285358 41.96H70.92531V163.08229H69.285358Z" fill="#008000"/>
</g>
<g clip-path="url(#clip_4)">
<path transform="matrix(1,0,0,-1,-11,336)" d="M70.92531 41.96H72.56526V150.01021H70.92531Z" fill="#0000ff"/>
</g>
<g clip-path="url(#clip_5)">
<path transform="matrix(1,0,0,-1,-11,336)" d="M72.56526 41.96H74.20521V138.67115H72.56526Z" fill="#ffa500"/>
</g>
<g clip-path="url(#clip_6)">
<path transform="matrix(1,0,0,-1,-11,336)" d="M74.20521 41.96H75.84516V136.83638H74.20521Z" fill="#ffa500"/>
</g>
<g clip-path="url(#clip_7)">
<path transform="matrix(1,0,0,-1,-11,336)" d="M75.84516 41.96H77.485118V133.2955H75.84516Z" fill="#0000ff"/>
</g>
<g clip-path="url(#clip_8)">
<path transform="matrix(1,0,0,-1,-11,336)" d="M77.485118 41.96H79.12506V127.34452H77.485118Z" fill="#0000ff"/>
</g>
<g clip-path="url(#clip_9)">
<path transform="matrix(1,0,0,-1,-11,336)" d="M79.12506 41.96H80.765018V127.16485H79.12506Z" fill="#0000ff"/>
</g>
<g clip-path="url(#clip_10)">
<path transform="matrix(1,0,0,-1,-11,336)" d="M80.765018 41.96H82.40497V126.26794H80.765018Z" fill="#ffa500"/>
</g>
<g clip-path="url(#clip_11)">
<path transform="matrix(1,0,0,-1,-11,336)" d="M82.40497 41.96H84.044918V117.2337H82.40497Z" fill="#0000ff"/>
</g>
<g clip-path="url(#clip_12)">
<path transform="matrix(1,0,0,-1,-11,336)" d="M84.044918 41.96H85.68487V115.7837H84.044918Z" fill="#0000ff"/>
</g>
<g clip-path="url(#clip_13)">
<path transform="matrix(1,0,0,-1,-11,336)" d="M85.68487 41.96H87.32482V114.50043H85.68487Z" fill="#ffa500"/>
</g>
<g clip-path="url(#clip_14)">
<path transform="matrix(1,0,0,-1,-11,336)" d="M87.32482 41.96H88.96477V113.05525H87.32482Z" fill="#0000ff"/>
</g>
<g clip-path="url(#clip_15)">
<path transform="matrix(1,0,0,-1,-11,336)" d="M88.96477 41.96H90.60472V112.72071H88.96477Z" fill="#008000"/>
</g>
<g clip-path="url(#clip_16)">
<path transform="matrix(1,0,0,-1,-11,336)" d="M90.60472 41.96H92.244678V112.41941H90.60472Z" fill="#ffa500"/>
</g>
<g clip-path="url(#clip_17)">
<path transform="matrix(1,0,0,-1,-11,336)" d="M92.244678 41.96H93.88462V112.37468H92.244678Z" fill="#ffa500"/>
</g>
<g clip-path="url(#clip_18)">
<path transform="matrix(1,0,0,-1,-11,336)" d="M93.88462 41.96H95.524578V111.23676H93.88462Z" fill="#0000ff"/>
</g>
<g clip-path="url(#clip_19)">
<path transform="matrix(1,0,0,-1,-11,336)" d="M95.524578 41.96H97.16453V109.73739H95.524578Z" fill="#0000ff"/>
</g>
<g clip-path="url(#clip_20)">
<path transform="matrix(1,0,0,-1,-11,336)" d="M97.16453 41.96H98.804477V109.194858H97.16453Z" fill="#0000ff"/>
</g>
<g clip-path="url(#clip_21)">
<path transform="matrix(1,0,0,-1,-11,336)" d="M98.804477 41.96H100.44443V108.19363H98.804477Z" fill="#0000ff"/>
</g>
<g clip-path="url(#clip_22)">
<path transform="matrix(1,0,0,-1,-11,336)" d="M100.44443 41.96H102.08438V106.6678H100.44443Z" fill="#0000ff"/>
</g>
<g clip-path="url(#clip_23)">
<path transform="matrix(1,0,0,-1,-11,336)" d="M102.08438 41.96H103.72433V106.345668H102.08438Z" fill="#ffa500"/>
</g>
<g clip-path="url(#clip_24)">
<path transform="matrix(1,0,0,-1,-11,336)" d="M103.72433 41.96H105.36428V106.17126H103.72433Z" fill="#ffa500"/>
</g>
<g clip-path="url(#clip_25)">
<path transform="matrix(1,0,0,-1,-11,336)" d="M105.36428 41.96H107.004238V105.468418H105.36428Z" fill="#0000ff"/>
</g>
<g clip-path="url(#clip_26)">
<path transform="matrix(1,0,0,-1,-11,336)" d="M107.004238 41.96H108.64418V104.220149H107.004238Z" fill="#0000ff"/>
</g>
<g clip-path="url(#clip_27)">
<path transform="matrix(1,0,0,-1,-11,336)" d="M108.64418 41.96H110.284137V103.7813H108.64418Z" fill="#0000ff"/>
</g>
<g clip-path="url(#clip_28)">
<path transform="matrix(1,0,0,-1,-11,336)" d="M110.284137 41.96H111.92409V103.67979H110.284137Z" fill="#0000ff"/>
</g>
<g clip-path="url(#clip_29)">
<path transform="matrix(1,0,0,-1,-11,336)" d="M111.92409 41.96H113.56403V103.601H111.92409Z" fill="#ffa500"/>
</g>
<g clip-path="url(#clip_30)">
<path transform="matrix(1,0,0,-1,-11,336)" d="M113.56403 41.96H115.20399V103.50219H113.56403Z" fill="#ffa500"/>
</g>
<g clip-path="url(#clip_31)">
<path transform="matrix(1,0,0,-1,-11,336)" d="M115.20399 41.96H116.84394V103.12876H115.20399Z" fill="#0000ff"/>
</g>
<g clip-path="url(#clip_32)">
<path transform="matrix(1,0,0,-1,-11,336)" d="M116.84394 41.96H118.48389V102.81635H116.84394Z" fill="#0000ff"/>
</g>
<g clip-path="url(#clip_33)">
<path transform="matrix(1,0,0,-1,-11,336)" d="M118.48389 41.96H120.12384V102.76269H118.48389Z" fill="#ffa500"/>
</g>
<g clip-path="url(#clip_34)">
<path transform="matrix(1,0,0,-1,-11,336)" d="M120.12384 41.96H121.763797V101.26809H120.12384Z" fill="#0000ff"/>
</g>
<g clip-path="url(#clip_35)">
<path transform="matrix(1,0,0,-1,-11,336)" d="M121.763797 41.96H123.40374V101.203418H121.763797Z" fill="#0000ff"/>
</g>
<g clip-path="url(#clip_36)">
<path transform="matrix(1,0,0,-1,-11,336)" d="M123.40374 41.96H125.04369V101.05972H123.40374Z" fill="#0000ff"/>
</g>
<g clip-path="url(#clip_37)">
<path transform="matrix(1,0,0,-1,-11,336)" d="M125.04369 41.96H126.68365V100.76573H125.04369Z" fill="#ffa500"/>
</g>
<g clip-path="url(#clip_38)">
<path transform="matrix(1,0,0,-1,-11,336)" d="M126.68365 41.96H128.3236V100.75404H126.68365Z" fill="#ffa500"/>
</g>
<g clip-path="url(#clip_39)">
<path transform="matrix(1,0,0,-1,-11,336)" d="M128.3236 41.96H129.96355V100.56049H128.3236Z" fill="#0000ff"/>
</g>
<g clip-path="url(#clip_40)">
<path transform="matrix(1,0,0,-1,-11,336)" d="M129.96355 41.96H131.6035V99.77984H129.96355Z" fill="#0000ff"/>
</g>
<g clip-path="url(#clip_41)">
<path transform="matrix(1,0,0,-1,-11,336)" d="M131.6035 41.96H133.24346V99.34857H131.6035Z" fill="#0000ff"/>
</g>
<g clip-path="url(#clip_42)">
<path transform="matrix(1,0,0,-1,-11,336)" d="M133.24346 41.96H134.8834V98.733H133.24346Z" fill="#0000ff"/>
</g>
<g clip-path="url(#clip_43)">
<path transform="matrix(1,0,0,-1,-11,336)" d="M134.8834 41.96H136.52335V98.30449H134.8834Z" fill="#0000ff"/>
</g>
<g clip-path="url(#clip_44)">
<path transform="matrix(1,0,0,-1,-11,336)" d="M136.52335 41.96H138.1633V98.09487H136.52335Z" fill="#0000ff"/>
</g>
<g clip-path="url(#clip_45)">
<path transform="matrix(1,0,0,-1,-11,336)" d="M138.1633 41.96H139.80326V97.6136H138.1633Z" fill="#0000ff"/>
</g>
<g clip-path="url(#clip_46)">
<path transform="matrix(1,0,0,-1,-11,336)" d="M139.80326 41.96H141.4432V97.60239H139.80326Z" fill="#0000ff"/>
</g>
<g clip-path="url(#clip_47)">
<path transform="matrix(1,0,0,-1,-11,336)" d="M141.4432 41.96H143.08316V97.54393H141.4432Z" fill="#0000ff"/>
</g>
<g clip-path="url(#clip_48)">
<path transform="matrix(1,0,0,-1,-11,336)" d="M143.08316 41.96H144.7231V97.42038H143.08316Z" fill="#0000ff"/>
</g>
<g clip-path="url(#clip_49)">
<path transform="matrix(1,0,0,-1,-11,336)" d="M144.7231 41.96H146.36305V97.32173H144.7231Z" fill="#0000ff"/>
</g>
<g clip-path="url(#clip_50)">
<path transform="matrix(1,0,0,-1,-11,336)" d="M146.36305 41.96H148.003V96.92592H146.36305Z" fill="#0000ff"/>
</g>
<g clip-path="url(#clip_51)">
<path transform="matrix(1,0,0,-1,-11,336)" d="M148.003 41.96H149.64296V96.553638H148.003Z" fill="#0000ff"/>
</g>
<g clip-path="url(#clip_52)">
<path transform="matrix(1,0,0,-1,-11,336)" d="M149.64296 41.96H151.28292V96.28343H149.64296Z" fill="#0000ff"/>
</g>
<g clip-path="url(#clip_53)">
<path transform="matrix(1,0,0,-1,-11,336)" d="M151.28292 41.96H152.92287V95.948558H151.28292Z" fill="#0000ff"/>
</g>
<g clip-path="url(#clip_54)">
<path transform="matrix(1,0,0,-1,-11,336)" d="M152.92287 41.96H154.56282V95.88985H152.92287Z" fill="#0000ff"/>
</g>
<g clip-path="url(#clip_55)">
<path transform="matrix(1,0,0,-1,-11,336)" d="M154.56282 41.96H156.20276V93.698169H154.56282Z" fill="#0000ff"/>
</g>
<g clip-path="url(#clip_56)">
<path transform="matrix(1,0,0,-1,-11,336)" d="M156.20276 41.96H157.84272V93.53678H156.20276Z" fill="#0000ff"/>
</g>
<g clip-path="url(#clip_57)">
<path transform="matrix(1,0,0,-1,-11,336)" d="M157.84272 41.96H159.48267V93.36119H157.84272Z" fill="#0000ff"/>
</g>
<g clip-path="url(#clip_58)">
<path transform="matrix(1,0,0,-1,-11,336)" d="M159.48267 41.96H161.12262V92.979709H159.48267Z" fill="#0000ff"/>
</g>
<g clip-path="url(#clip_59)">
<path transform="matrix(1,0,0,-1,-11,336)" d="M161.12262 41.96H162.76258V92.97653H161.12262Z" fill="#0000ff"/>
</g>
<g clip-path="url(#clip_60)">
<path transform="matrix(1,0,0,-1,-11,336)" d="M162.76258 41.96H164.40251V92.865459H162.76258Z" fill="#0000ff"/>
</g>
<g clip-path="url(#clip_61)">
<path transform="matrix(1,0,0,-1,-11,336)" d="M164.40251 41.96H166.04247V92.61087H164.40251Z" fill="#ffa500"/>
</g>
<g clip-path="url(#clip_62)">
<path transform="matrix(1,0,0,-1,-11,336)" d="M166.04247 41.96H167.68242V92.47535H166.04247Z" fill="#0000ff"/>
</g>
<g clip-path="url(#clip_63)">
<path transform="matrix(1,0,0,-1,-11,336)" d="M167.68242 41.96H169.32238V91.99569H167.68242Z" fill="#0000ff"/>
</g>
<g clip-path="url(#clip_64)">
<path transform="matrix(1,0,0,-1,-11,336)" d="M169.32238 41.96H170.96233V91.58836H169.32238Z" fill="#0000ff"/>
</g>
<g clip-path="url(#clip_65)">
<path transform="matrix(1,0,0,-1,-11,336)" d="M170.96233 41.96H172.60228V91.295978H170.96233Z" fill="#0000ff"/>
</g>
<g clip-path="url(#clip_66)">
<path transform="matrix(1,0,0,-1,-11,336)" d="M172.60228 41.96H174.24224V90.72476H172.60228Z" fill="#ffa500"/>
</g>
<g clip-path="url(#clip_67)">
<path transform="matrix(1,0,0,-1,-11,336)" d="M174.24224 41.96H175.88217V90.45271H174.24224Z" fill="#0000ff"/>
</g>
<g clip-path="url(#clip_68)">
<path transform="matrix(1,0,0,-1,-11,336)" d="M175.88217 41.96H177.52213V89.725917H175.88217Z" fill="#0000ff"/>
</g>
<g clip-path="url(#clip_69)">
<path transform="matrix(1,0,0,-1,-11,336)" d="M177.52213 41.96H179.16208V89.10399H177.52213Z" fill="#0000ff"/>
</g>
<g clip-path="url(#clip_70)">
<path transform="matrix(1,0,0,-1,-11,336)" d="M179.16208 41.96H180.80204V89.04388H179.16208Z" fill="#0000ff"/>
</g>
<g clip-path="url(#clip_71)">
<path transform="matrix(1,0,0,-1,-11,336)" d="M180.80204 41.96H182.44199V88.7114H180.80204Z" fill="#0000ff"/>
</g>
<g clip-path="url(#clip_72)">
<path transform="matrix(1,0,0,-1,-11,336)" d="M182.44199 41.96H184.08193V88.59228H182.44199Z" fill="#0000ff"/>
</g>
<g clip-path="url(#clip_73)">
<path transform="matrix(1,0,0,-1,-11,336)" d="M184.08193 41.96H185.72188V88.01291H184.08193Z" fill="#0000ff"/>
</g>
<g clip-path="url(#clip_74)">
<path transform="matrix(1,0,0,-1,-11,336)" d="M185.72188 41.96H187.36183V87.996898H185.72188Z" fill="#0000ff"/>
</g>
<g clip-path="url(#clip_75)">
<path transform="matrix(1,0,0,-1,-11,336)" d="M187.36183 41.96H189.00179V87.45667H187.36183Z" fill="#0000ff"/>
</g>
<g clip-path="url(#clip_76)">
<path transform="matrix(1,0,0,-1,-11,336)" d="M189.00179 41.96H190.64174V87.435169H189.00179Z" fill="#0000ff"/>
</g>
<g clip-path="url(#clip_77)">
<path transform="matrix(1,0,0,-1,-11,336)" d="M190.64174 41.96H192.2817V87.264659H190.64174Z" fill="#0000ff"/>
</g>
<g clip-path="url(#clip_78)">
<path transform="matrix(1,0,0,-1,-11,336)" d="M192.2817 41.96H193.92165V86.7404H192.2817Z" fill="#0000ff"/>
</g>
<g clip-path="url(#clip_79)">
<path transform="matrix(1,0,0,-1,-11,336)" d="M193.92165 41.96H195.56159V86.51356H193.92165Z" fill="#0000ff"/>
</g>
<g clip-path="url(#clip_80)">
<path transform="matrix(1,0,0,-1,-11,336)" d="M195.56159 41.96H197.20154V86.47584H195.56159Z" fill="#ffa500"/>
</g>
<g clip-path="url(#clip_81)">
<path transform="matrix(1,0,0,-1,-11,336)" d="M197.20154 41.96H198.84149V86.21329H197.20154Z" fill="#0000ff"/>
</g>
<g clip-path="url(#clip_82)">
<path transform="matrix(1,0,0,-1,-11,336)" d="M198.84149 41.96H200.48145V86.14976H198.84149Z" fill="#0000ff"/>
</g>
<g clip-path="url(#clip_83)">
<path transform="matrix(1,0,0,-1,-11,336)" d="M200.48145 41.96H202.1214V85.605289H200.48145Z" fill="#0000ff"/>
</g>
<g clip-path="url(#clip_84)">
<path transform="matrix(1,0,0,-1,-11,336)" d="M202.1214 41.96H203.76136V85.57758H202.1214Z" fill="#0000ff"/>
</g>
<g clip-path="url(#clip_85)">
<path transform="matrix(1,0,0,-1,-11,336)" d="M203.76136 41.96H205.40129V85.30981H203.76136Z" fill="#ffa500"/>
</g>
<g clip-path="url(#clip_86)">
<path transform="matrix(1,0,0,-1,-11,336)" d="M205.40129 41.96H207.04125V85.21267H205.40129Z" fill="#0000ff"/>
</g>
<g clip-path="url(#clip_87)">
<path transform="matrix(1,0,0,-1,-11,336)" d="M207.04125 41.96H208.6812V85.168979H207.04125Z" fill="#0000ff"/>
</g>
<g clip-path="url(#clip_88)">
<path transform="matrix(1,0,0,-1,-11,336)" d="M208.6812 41.96H210.32115V84.71747H208.6812Z" fill="#0000ff"/>
</g>
<g clip-path="url(#clip_89)">
<path transform="matrix(1,0,0,-1,-11,336)" d="M210.32115 41.96H211.9611V84.60152H210.32115Z" fill="#0000ff"/>
</g>
<g clip-path="url(#clip_90)">
<path transform="matrix(1,0,0,-1,-11,336)" d="M211.9611 41.96H213.60106V84.43937H211.9611Z" fill="#0000ff"/>
</g>
<g clip-path="url(#clip_91)">
<path transform="matrix(1,0,0,-1,-11,336)" d="M213.60106 41.96H215.241V84.36448H213.60106Z" fill="#0000ff"/>
</g>
<g clip-path="url(#clip_92)">
<path transform="matrix(1,0,0,-1,-11,336)" d="M215.241 41.96H216.88095V84.251728H215.241Z" fill="#0000ff"/>
</g>
<g clip-path="url(#clip_93)">
<path transform="matrix(1,0,0,-1,-11,336)" d="M216.88095 41.96H218.5209V83.80447H216.88095Z" fill="#0000ff"/>
</g>
<g clip-path="url(#clip_94)">
<path transform="matrix(1,0,0,-1,-11,336)" d="M218.5209 41.96H220.16086V83.767108H218.5209Z" fill="#0000ff"/>
</g>
<g clip-path="url(#clip_95)">
<path transform="matrix(1,0,0,-1,-11,336)" d="M220.16086 41.96H221.80081V83.503589H220.16086Z" fill="#0000ff"/>
</g>
<g clip-path="url(#clip_96)">
<path transform="matrix(1,0,0,-1,-11,336)" d="M221.80081 41.96H223.44077V82.924739H221.80081Z" fill="#0000ff"/>
</g>
<g clip-path="url(#clip_97)">
<path transform="matrix(1,0,0,-1,-11,336)" d="M223.44077 41.96H225.0807V82.82143H223.44077Z" fill="#0000ff"/>
</g>
<g clip-path="url(#clip_98)">
<path transform="matrix(1,0,0,-1,-11,336)" d="M225.0807 41.96H226.72066V82.820247H225.0807Z" fill="#0000ff"/>
</g>
<g clip-path="url(#clip_99)">
<path transform="matrix(1,0,0,-1,-11,336)" d="M226.72066 41.96H228.36061V82.74235H226.72066Z" fill="#ffa500"/>
</g>
<g clip-path="url(#clip_100)">
<path transform="matrix(1,0,0,-1,-11,336)" d="M228.36061 41.96H230.00057V82.69128H228.36061Z" fill="#0000ff"/>
</g>
<g clip-path="url(#clip_101)">
<path transform="matrix(1,0,0,-1,-11,336)" d="M230.00057 41.96H231.64052V82.46828H230.00057Z" fill="#0000ff"/>
</g>
<g clip-path="url(#clip_102)">
<path transform="matrix(1,0,0,-1,-11,336)" d="M231.64052 41.96H233.28047V82.44927H231.64052Z" fill="#0000ff"/>
</g>
<g clip-path="url(#clip_103)">
<path transform="matrix(1,0,0,-1,-11,336)" d="M233.28047 41.96H234.92041V82.38402H233.28047Z" fill="#0000ff"/>
</g>
<g clip-path="url(#clip_104)">
<path transform="matrix(1,0,0,-1,-11,336)" d="M234.92041 41.96H236.56037V82.29411H234.92041Z" fill="#0000ff"/>
</g>
<g clip-path="url(#clip_105)">
<path transform="matrix(1,0,0,-1,-11,336)" d="M236.56037 41.96H238.20032V82.27487H236.56037Z" fill="#0000ff"/>
</g>
<g clip-path="url(#clip_106)">
<path transform="matrix(1,0,0,-1,-11,336)" d="M238.20032 41.96H239.84027V82.14239H238.20032Z" fill="#0000ff"/>
</g>
<g clip-path="url(#clip_107)">
<path transform="matrix(1,0,0,-1,-11,336)" d="M239.84027 41.96H241.48023V81.80497H239.84027Z" fill="#0000ff"/>
</g>
<g clip-path="url(#clip_108)">
<path transform="matrix(1,0,0,-1,-11,336)" d="M241.48023 41.96H243.12018V81.78971H241.48023Z" fill="#0000ff"/>
</g>
<g clip-path="url(#clip_109)">
<path transform="matrix(1,0,0,-1,-11,336)" d="M243.12018 41.96H244.76012V81.66243H243.12018Z" fill="#0000ff"/>
</g>
<g clip-path="url(#clip_110)">
<path transform="matrix(1,0,0,-1,-11,336)" d="M244.76012 41.96H246.40007V81.627368H244.76012Z" fill="#0000ff"/>
</g>
<g clip-path="url(#clip_111)">
<path transform="matrix(1,0,0,-1,-11,336)" d="M246.40007 41.96H248.04003V81.35332H246.40007Z" fill="#ffa500"/>
</g>
<g clip-path="url(#clip_112)">
<path transform="matrix(1,0,0,-1,-11,336)" d="M248.04003 41.96H249.67998V81.062908H248.04003Z" fill="#0000ff"/>
</g>
<g clip-path="url(#clip_113)">
<path transform="matrix(1,0,0,-1,-11,336)" d="M249.67998 41.96H251.31993V80.71486H249.67998Z" fill="#0000ff"/>
</g>
<g clip-path="url(#clip_114)">
<path transform="matrix(1,0,0,-1,-11,336)" d="M251.31993 41.96H252.95989V80.57554H251.31993Z" fill="#0000ff"/>
</g>
<g clip-path="url(#clip_115)">
<path transform="matrix(1,0,0,-1,-11,336)" d="M252.95989 41.96H254.59983V80.18246H252.95989Z" fill="#0000ff"/>
</g>
<g clip-path="url(#clip_116)">
<path transform="matrix(1,0,0,-1,-11,336)" d="M254.59983 41.96H256.23979V79.89875H254.59983Z" fill="#0000ff"/>
</g>
<g clip-path="url(#clip_117)">
<path transform="matrix(1,0,0,-1,-11,336)" d="M256.23979 41.96H257.87974V79.88052H256.23979Z" fill="#0000ff"/>
</g>
<g clip-path="url(#clip_118)">
<path transform="matrix(1,0,0,-1,-11,336)" d="M257.87974 41.96H259.51969V79.77655H257.87974Z" fill="#0000ff"/>
</g>
<g clip-path="url(#clip_119)">
<path transform="matrix(1,0,0,-1,-11,336)" d="M259.51969 41.96H261.15965V79.73515H259.51969Z" fill="#0000ff"/>
</g>
<g clip-path="url(#clip_120)">
<path transform="matrix(1,0,0,-1,-11,336)" d="M261.15965 41.96H262.7996V79.565738H261.15965Z" fill="#0000ff"/>
</g>
<g clip-path="url(#clip_121)">
<path transform="matrix(1,0,0,-1,-11,336)" d="M262.7996 41.96H264.43955V79.43335H262.7996Z" fill="#0000ff"/>
</g>
<g clip-path="url(#clip_122)">
<path transform="matrix(1,0,0,-1,-11,336)" d="M264.43955 41.96H266.0795V79.38848H264.43955Z" fill="#008000"/>
</g>
<g clip-path="url(#clip_123)">
<path transform="matrix(1,0,0,-1,-11,336)" d="M266.0795 41.96H267.71946V79.27371H266.0795Z" fill="#0000ff"/>
</g>
<g clip-path="url(#clip_124)">
<path transform="matrix(1,0,0,-1,-11,336)" d="M267.71946 41.96H269.35939V79.16033H267.71946Z" fill="#0000ff"/>
</g>
<g clip-path="url(#clip_125)">
<path transform="matrix(1,0,0,-1,-11,336)" d="M269.35939 41.96H270.99934V79.10163H269.35939Z" fill="#0000ff"/>
</g>
<g clip-path="url(#clip_126)">
<path transform="matrix(1,0,0,-1,-11,336)" d="M270.99934 41.96H272.63929V79.08549H270.99934Z" fill="#0000ff"/>
</g>
<g clip-path="url(#clip_127)">
<path transform="matrix(1,0,0,-1,-11,336)" d="M272.63929 41.96H274.27925V78.66564H272.63929Z" fill="#0000ff"/>
</g>
<g clip-path="url(#clip_128)">
<path transform="matrix(1,0,0,-1,-11,336)" d="M274.27925 41.96H275.9192V78.54282H274.27925Z" fill="#0000ff"/>
</g>
<g clip-path="url(#clip_129)">
<path transform="matrix(1,0,0,-1,-11,336)" d="M275.9192 41.96H277.55915V78.48944H275.9192Z" fill="#ffa500"/>
</g>
<g clip-path="url(#clip_130)">
<path transform="matrix(1,0,0,-1,-11,336)" d="M277.55915 41.96H279.1991V78.28937H277.55915Z" fill="#0000ff"/>
</g>
<g clip-path="url(#clip_131)">
<path transform="matrix(1,0,0,-1,-11,336)" d="M279.1991 41.96H280.83906V78.25405H279.1991Z" fill="#0000ff"/>
</g>
<g clip-path="url(#clip_132)">
<path transform="matrix(1,0,0,-1,-11,336)" d="M280.83906 41.96H282.479V77.950679H280.83906Z" fill="#0000ff"/>
</g>
<g clip-path="url(#clip_133)">
<path transform="matrix(1,0,0,-1,-11,336)" d="M282.479 41.96H284.11897V77.76649H282.479Z" fill="#ffa500"/>
</g>
<g clip-path="url(#clip_134)">
<path transform="matrix(1,0,0,-1,-11,336)" d="M284.11897 41.96H285.7589V77.43026H284.11897Z" fill="#0000ff"/>
</g>
<g clip-path="url(#clip_135)">
<path transform="matrix(1,0,0,-1,-11,336)" d="M285.7589 41.96H287.39888V77.20811H285.7589Z" fill="#0000ff"/>
</g>
<g clip-path="url(#clip_136)">
<path transform="matrix(1,0,0,-1,-11,336)" d="M287.39888 41.96H289.0388V76.83902H287.39888Z" fill="#0000ff"/>
</g>
<g clip-path="url(#clip_137)">
<path transform="matrix(1,0,0,-1,-11,336)" d="M289.0388 41.96H290.67875V76.66739H289.0388Z" fill="#0000ff"/>
</g>
<g clip-path="url(#clip_138)">
<path transform="matrix(1,0,0,-1,-11,336)" d="M290.67875 41.96H292.3187V76.64718H290.67875Z" fill="#0000ff"/>
</g>
<g clip-path="url(#clip_139)">
<path transform="matrix(1,0,0,-1,-11,336)" d="M292.3187 41.96H293.95866V76.35904H292.3187Z" fill="#ffa500"/>
</g>
<g clip-path="url(#clip_140)">
<path transform="matrix(1,0,0,-1,-11,336)" d="M293.95866 41.96H295.5986V75.73087H293.95866Z" fill="#ffa500"/>
</g>
<g clip-path="url(#clip_141)">
<path transform="matrix(1,0,0,-1,-11,336)" d="M295.5986 41.96H297.23857V75.69131H295.5986Z" fill="#ffa500"/>
</g>
<g clip-path="url(#clip_142)">
<path transform="matrix(1,0,0,-1,-11,336)" d="M297.23857 41.96H298.8785V75.6157H297.23857Z" fill="#ffa500"/>
</g>
<g clip-path="url(#clip_143)">
<path transform="matrix(1,0,0,-1,-11,336)" d="M298.8785 41.96H300.51847V75.45225H298.8785Z" fill="#ffa500"/>
</g>
<g clip-path="url(#clip_144)">
<path transform="matrix(1,0,0,-1,-11,336)" d="M300.51847 41.96H302.15843V75.43027H300.51847Z" fill="#0000ff"/>
</g>
<g clip-path="url(#clip_145)">
<path transform="matrix(1,0,0,-1,-11,336)" d="M302.15843 41.96H303.79838V75.32555H302.15843Z" fill="#0000ff"/>
</g>
<g clip-path="url(#clip_146)">
<path transform="matrix(1,0,0,-1,-11,336)" d="M303.79838 41.96H305.43833V74.78083H303.79838Z" fill="#0000ff"/>
</g>
<g clip-path="url(#clip_147)">
<path transform="matrix(1,0,0,-1,-11,336)" d="M305.43833 41.96H307.07829V74.777469H305.43833Z" fill="#0000ff"/>
</g>
<g clip-path="url(#clip_148)">
<path transform="matrix(1,0,0,-1,-11,336)" d="M307.07829 41.96H308.7182V74.71413H307.07829Z" fill="#ffa500"/>
</g>
<g clip-path="url(#clip_149)">
<path transform="matrix(1,0,0,-1,-11,336)" d="M308.7182 41.96H310.35816V74.68798H308.7182Z" fill="#0000ff"/>
</g>
<g clip-path="url(#clip_150)">
<path transform="matrix(1,0,0,-1,-11,336)" d="M310.35816 41.96H311.9981V74.61802H310.35816Z" fill="#0000ff"/>
</g>
<g clip-path="url(#clip_151)">
<path transform="matrix(1,0,0,-1,-11,336)" d="M311.9981 41.96H313.63807V74.49183H311.9981Z" fill="#0000ff"/>
</g>
<g clip-path="url(#clip_152)">
<path transform="matrix(1,0,0,-1,-11,336)" d="M313.63807 41.96H315.278V74.23962H313.63807Z" fill="#0000ff"/>
</g>
<g clip-path="url(#clip_153)">
<path transform="matrix(1,0,0,-1,-11,336)" d="M315.278 41.96H316.91798V73.92269H315.278Z" fill="#0000ff"/>
</g>
<g clip-path="url(#clip_154)">
<path transform="matrix(1,0,0,-1,-11,336)" d="M316.91798 41.96H318.55793V73.813488H316.91798Z" fill="#0000ff"/>
</g>
<g clip-path="url(#clip_155)">
<path transform="matrix(1,0,0,-1,-11,336)" d="M318.55793 41.96H320.19789V73.69776H318.55793Z" fill="#0000ff"/>
</g>
<g clip-path="url(#clip_156)">
<path transform="matrix(1,0,0,-1,-11,336)" d="M320.19789 41.96H321.83784V72.732769H320.19789Z" fill="#0000ff"/>
</g>
<g clip-path="url(#clip_157)">
<path transform="matrix(1,0,0,-1,-11,336)" d="M321.83784 41.96H323.47779V72.55679H321.83784Z" fill="#0000ff"/>
</g>
<g clip-path="url(#clip_158)">
<path transform="matrix(1,0,0,-1,-11,336)" d="M323.47779 41.96H325.11775V72.20248H323.47779Z" fill="#0000ff"/>
</g>
<g clip-path="url(#clip_159)">
<path transform="matrix(1,0,0,-1,-11,336)" d="M325.11775 41.96H326.7577V71.54676H325.11775Z" fill="#0000ff"/>
</g>
<g clip-path="url(#clip_160)">
<path transform="matrix(1,0,0,-1,-11,336)" d="M326.7577 41.96H328.3976V71.50481H326.7577Z" fill="#0000ff"/>
</g>
<g clip-path="url(#clip_161)">
<path transform="matrix(1,0,0,-1,-11,336)" d="M328.3976 41.96H330.03758V70.798908H328.3976Z" fill="#ffa500"/>
</g>
<g clip-path="url(#clip_162)">
<path transform="matrix(1,0,0,-1,-11,336)" d="M330.03758 41.96H331.67753V69.99999H330.03758Z" fill="#ffa500"/>
</g>
<g clip-path="url(#clip_163)">
<path transform="matrix(1,0,0,-1,-11,336)" d="M331.67753 41.96H333.31748V69.79254H331.67753Z" fill="#0000ff"/>
</g>
<g clip-path="url(#clip_164)">
<path transform="matrix(1,0,0,-1,-11,336)" d="M333.31748 41.96H334.95744V69.7075H333.31748Z" fill="#0000ff"/>
</g>
<g clip-path="url(#clip_165)">
<path transform="matrix(1,0,0,-1,-11,336)" d="M334.95744 41.96H336.59739V69.514118H334.95744Z" fill="#0000ff"/>
</g>
<g clip-path="url(#clip_166)">
<path transform="matrix(1,0,0,-1,-11,336)" d="M336.59739 41.96H338.23735V69.37225H336.59739Z" fill="#0000ff"/>
</g>
<g clip-path="url(#clip_167)">
<path transform="matrix(1,0,0,-1,-11,336)" d="M338.23735 41.96H339.8773V68.99087H338.23735Z" fill="#0000ff"/>
</g>
<g clip-path="url(#clip_168)">
<path transform="matrix(1,0,0,-1,-11,336)" d="M339.8773 41.96H341.51725V68.94222H339.8773Z" fill="#0000ff"/>
</g>
<g clip-path="url(#clip_169)">
<path transform="matrix(1,0,0,-1,-11,336)" d="M341.51725 41.96H343.1572V68.87846H341.51725Z" fill="#008000"/>
</g>
<g clip-path="url(#clip_170)">
<path transform="matrix(1,0,0,-1,-11,336)" d="M343.1572 41.96H344.79716V68.83787H343.1572Z" fill="#0000ff"/>
</g>
<g clip-path="url(#clip_171)">
<path transform="matrix(1,0,0,-1,-11,336)" d="M344.79716 41.96H346.4371V68.62929H344.79716Z" fill="#0000ff"/>
</g>
<g clip-path="url(#clip_172)">
<path transform="matrix(1,0,0,-1,-11,336)" d="M346.4371 41.96H348.07704V67.44614H346.4371Z" fill="#0000ff"/>
</g>
<g clip-path="url(#clip_173)">
<path transform="matrix(1,0,0,-1,-11,336)" d="M348.07704 41.96H349.71699V67.40262H348.07704Z" fill="#0000ff"/>
</g>
<g clip-path="url(#clip_174)">
<path transform="matrix(1,0,0,-1,-11,336)" d="M349.71699 41.96H351.35694V66.89787H349.71699Z" fill="#0000ff"/>
</g>
<g clip-path="url(#clip_175)">
<path transform="matrix(1,0,0,-1,-11,336)" d="M351.35694 41.96H352.9969V66.47822H351.35694Z" fill="#0000ff"/>
</g>
<g clip-path="url(#clip_176)">
<path transform="matrix(1,0,0,-1,-11,336)" d="M352.9969 41.96H354.63685V66.46172H352.9969Z" fill="#0000ff"/>
</g>
<g clip-path="url(#clip_177)">
<path transform="matrix(1,0,0,-1,-11,336)" d="M354.63685 41.96H356.2768V65.692829H354.63685Z" fill="#0000ff"/>
</g>
<g clip-path="url(#clip_178)">
<path transform="matrix(1,0,0,-1,-11,336)" d="M356.2768 41.96H357.91676V65.643077H356.2768Z" fill="#0000ff"/>
</g>
<g clip-path="url(#clip_179)">
<path transform="matrix(1,0,0,-1,-11,336)" d="M357.91676 41.96H359.5567V65.50641H357.91676Z" fill="#ffa500"/>
</g>
<g clip-path="url(#clip_180)">
<path transform="matrix(1,0,0,-1,-11,336)" d="M359.5567 41.96H361.19667V65.25379H359.5567Z" fill="#ffa500"/>
</g>
<g clip-path="url(#clip_181)">
<path transform="matrix(1,0,0,-1,-11,336)" d="M361.19667 41.96H362.8366V65.11683H361.19667Z" fill="#ffa500"/>
</g>
<g clip-path="url(#clip_182)">
<path transform="matrix(1,0,0,-1,-11,336)" d="M362.8366 41.96H364.47657V64.926929H362.8366Z" fill="#ffa500"/>
</g>
<g clip-path="url(#clip_183)">
<path transform="matrix(1,0,0,-1,-11,336)" d="M364.47657 41.96H366.11653V64.77488H364.47657Z" fill="#0000ff"/>
</g>
<g clip-path="url(#clip_184)">
<path transform="matrix(1,0,0,-1,-11,336)" d="M366.11653 41.96H367.75645V64.45902H366.11653Z" fill="#0000ff"/>
</g>
<g clip-path="url(#clip_185)">
<path transform="matrix(1,0,0,-1,-11,336)" d="M367.75645 41.96H369.3964V64.16132H367.75645Z" fill="#0000ff"/>
</g>
<g clip-path="url(#clip_186)">
<path transform="matrix(1,0,0,-1,-11,336)" d="M369.3964 41.96H371.03636V63.965219H369.3964Z" fill="#0000ff"/>
</g>
<g clip-path="url(#clip_187)">
<path transform="matrix(1,0,0,-1,-11,336)" d="M371.03636 41.96H372.6763V63.942995H371.03636Z" fill="#0000ff"/>
</g>
<g clip-path="url(#clip_188)">
<path transform="matrix(1,0,0,-1,-11,336)" d="M372.6763 41.96H374.31626V63.78434H372.6763Z" fill="#0000ff"/>
</g>
<g clip-path="url(#clip_189)">
<path transform="matrix(1,0,0,-1,-11,336)" d="M374.31626 41.96H375.9562V63.65319H374.31626Z" fill="#0000ff"/>
</g>
<g clip-path="url(#clip_190)">
<path transform="matrix(1,0,0,-1,-11,336)" d="M375.9562 41.96H377.59617V63.58452H375.9562Z" fill="#0000ff"/>
</g>
<g clip-path="url(#clip_191)">
<path transform="matrix(1,0,0,-1,-11,336)" d="M377.59617 41.96H379.2361V63.30792H377.59617Z" fill="#0000ff"/>
</g>
<g clip-path="url(#clip_192)">
<path transform="matrix(1,0,0,-1,-11,336)" d="M379.2361 41.96H380.87608V63.150289H379.2361Z" fill="#0000ff"/>
</g>
<g clip-path="url(#clip_193)">
<path transform="matrix(1,0,0,-1,-11,336)" d="M380.87608 41.96H382.51603V63.080404H380.87608Z" fill="#0000ff"/>
</g>
<g clip-path="url(#clip_194)">
<path transform="matrix(1,0,0,-1,-11,336)" d="M382.51603 41.96H384.15599V62.930105H382.51603Z" fill="#0000ff"/>
</g>
<g clip-path="url(#clip_195)">
<path transform="matrix(1,0,0,-1,-11,336)" d="M384.15599 41.96H385.79594V62.738847H384.15599Z" fill="#0000ff"/>
</g>
<g clip-path="url(#clip_196)">
<path transform="matrix(1,0,0,-1,-11,336)" d="M385.79594 41.96H387.43586V62.401239H385.79594Z" fill="#0000ff"/>
</g>
<g clip-path="url(#clip_197)">
<path transform="matrix(1,0,0,-1,-11,336)" d="M387.43586 41.96H389.0758V62.347799H387.43586Z" fill="#0000ff"/>
</g>
<g clip-path="url(#clip_198)">
<path transform="matrix(1,0,0,-1,-11,336)" d="M389.0758 41.96H390.71577V62.261018H389.0758Z" fill="#0000ff"/>
</g>
<g clip-path="url(#clip_199)">
<path transform="matrix(1,0,0,-1,-11,336)" d="M390.71577 41.96H392.3557V60.8813H390.71577Z" fill="#0000ff"/>
</g>
<g clip-path="url(#clip_200)">
<path transform="matrix(1,0,0,-1,-11,336)" d="M392.3557 41.96H393.99568V59.515707H392.3557Z" fill="#ffa500"/>
</g>
<g clip-path="url(#clip_201)">
<path transform="matrix(1,0,0,-1,-11,336)" d="M393.99568 41.96H395.63563V58.987806H393.99568Z" fill="#008000"/>
</g>
<g clip-path="url(#clip_202)">
<path transform="matrix(1,0,0,-1,-11,336)" d="M395.63563 41.96H397.27558V57.639764H395.63563Z" fill="#0000ff"/>
</g>
<g clip-path="url(#clip_203)">
<path transform="matrix(1,0,0,-1,-11,336)" d="M397.27558 41.96H398.91554V57.449155H397.27558Z" fill="#0000ff"/>
</g>
<g clip-path="url(#clip_204)">
<path transform="matrix(1,0,0,-1,-11,336)" d="M398.91554 41.96H400.55549V57.13422H398.91554Z" fill="#008000"/>
</g>
<g clip-path="url(#clip_205)">
<path transform="matrix(1,0,0,-1,-11,336)" d="M400.55549 41.96H402.19544V57.11897H400.55549Z" fill="#0000ff"/>
</g>
<g clip-path="url(#clip_206)">
<path transform="matrix(1,0,0,-1,-11,336)" d="M402.19544 41.96H403.8354V57.105905H402.19544Z" fill="#0000ff"/>
</g>
<g clip-path="url(#clip_207)">
<path transform="matrix(1,0,0,-1,-11,336)" d="M403.8354 41.96H405.47535V57.056447H403.8354Z" fill="#0000ff"/>
</g>
<g clip-path="url(#clip_208)">
<path transform="matrix(1,0,0,-1,-11,336)" d="M405.47535 41.96H407.11528V57.030939H405.47535Z" fill="#0000ff"/>
</g>
<g clip-path="url(#clip_209)">
<path transform="matrix(1,0,0,-1,-11,336)" d="M407.11528 41.96H408.75523V56.757H407.11528Z" fill="#0000ff"/>
</g>
<g clip-path="url(#clip_210)">
<path transform="matrix(1,0,0,-1,-11,336)" d="M408.75523 41.96H410.39518V56.692037H408.75523Z" fill="#0000ff"/>
</g>
<g clip-path="url(#clip_211)">
<path transform="matrix(1,0,0,-1,-11,336)" d="M410.39518 41.96H412.03514V56.63805H410.39518Z" fill="#0000ff"/>
</g>
<g clip-path="url(#clip_212)">
<path transform="matrix(1,0,0,-1,-11,336)" d="M412.03514 41.96H413.67509V56.56201H412.03514Z" fill="#0000ff"/>
</g>
<g clip-path="url(#clip_213)">
<path transform="matrix(1,0,0,-1,-11,336)" d="M413.67509 41.96H415.31504V56.296277H413.67509Z" fill="#0000ff"/>
</g>
<g clip-path="url(#clip_214)">
<path transform="matrix(1,0,0,-1,-11,336)" d="M415.31504 41.96H416.955V56.19894H415.31504Z" fill="#0000ff"/>
</g>
<g clip-path="url(#clip_215)">
<path transform="matrix(1,0,0,-1,-11,336)" d="M416.955 41.96H418.59495V45.325784H416.955Z" fill="#0000ff"/>
</g>
<g clip-path="url(#clip_216)">
<path transform="matrix(1,0,0,-1,-11,336)" d="M418.59495 41.96H420.2349V45.10153H418.59495Z" fill="#008000"/>
</g>
<g clip-path="url(#clip_217)">
<path transform="matrix(1,0,0,-1,-11,336)" d="M420.2349 41.96H421.87486V43.881494H420.2349Z" fill="#008000"/>
</g>
<g clip-path="url(#clip_218)">
<path transform="matrix(1,0,0,-1,-11,336)" d="M421.87486 41.96H423.5148V43.152067H421.87486Z" fill="#0000ff"/>
</g>
<g clip-path="url(#clip_219)">
<path transform="matrix(1,0,0,-1,-11,336)" d="M423.5148 41.96H425.15476V42.58335H423.5148Z" fill="#008000"/>
</g>
<g clip-path="url(#clip_220)">
<path transform="matrix(1,0,0,-1,-11,336)" d="M425.15476 41.96H426.79469V42.47881H425.15476Z" fill="#008000"/>
</g>
<g clip-path="url(#clip_221)">
<path transform="matrix(1,0,0,-1,-11,336)" d="M426.79469 41.96H428.43464V41.9966H426.79469Z" fill="#008000"/>
</g>
<g clip-path="url(#clip_222)">
<path transform="matrix(1,0,0,-1,-11,336)" d="M428.43464 41.96H430.0746V41.968873H428.43464Z" fill="#008000"/>
</g>
<g clip-path="url(#clip_223)">
<path transform="matrix(1,0,0,-1,-11,336)" d="M430.0746 41.96H431.71455V41.96199H430.0746Z" fill="#008000"/>
</g>
<path transform="matrix(1,0,0,-1,-11,336)" d="M66.82543 41.96V38.46"/>
<path transform="matrix(1,0,0,-1,-11,336)" stroke-width=".8" stroke-linecap="butt" stroke-linejoin="round" fill="none" stroke="#000000" d="M66.82543 41.96V38.46"/>
<text xml:space="preserve" transform="matrix(1 0 -0 1 52.645746 308.63377)" font-size="10" font-family="DejaVuSans"><tspan y="0" x="0">0</tspan></text>
<path transform="matrix(1,0,0,-1,-11,336)" d="M148.82299 41.96V38.46"/>
<path transform="matrix(1,0,0,-1,-11,336)" stroke-width=".8" stroke-linecap="butt" stroke-linejoin="round" fill="none" stroke="#000000" d="M148.82299 41.96V38.46"/>
<text xml:space="preserve" transform="matrix(1 0 -0 1 131.46361 308.63377)" font-size="10" font-family="DejaVuSans"><tspan y="0" x="0 6.3600008">50</tspan></text>
<path transform="matrix(1,0,0,-1,-11,336)" d="M230.82054 41.96V38.46"/>
<path transform="matrix(1,0,0,-1,-11,336)" stroke-width=".8" stroke-linecap="butt" stroke-linejoin="round" fill="none" stroke="#000000" d="M230.82054 41.96V38.46"/>
<text xml:space="preserve" transform="matrix(1 0 -0 1 210.28148 308.63377)" font-size="10" font-family="DejaVuSans"><tspan y="0" x="0 6.3600008 12.720001">100</tspan></text>
<path transform="matrix(1,0,0,-1,-11,336)" d="M312.81809 41.96V38.46"/>
<path transform="matrix(1,0,0,-1,-11,336)" stroke-width=".8" stroke-linecap="butt" stroke-linejoin="round" fill="none" stroke="#000000" d="M312.81809 41.96V38.46"/>
<text xml:space="preserve" transform="matrix(1 0 -0 1 292.27903 308.63377)" font-size="10" font-family="DejaVuSans"><tspan y="0" x="0 6.3600008 12.720001">150</tspan></text>
<path transform="matrix(1,0,0,-1,-11,336)" d="M394.81565 41.96V38.46"/>
<path transform="matrix(1,0,0,-1,-11,336)" stroke-width=".8" stroke-linecap="butt" stroke-linejoin="round" fill="none" stroke="#000000" d="M394.81565 41.96V38.46"/>
<text xml:space="preserve" transform="matrix(1 0 -0 1 374.27659 308.63377)" font-size="10" font-family="DejaVuSans"><tspan y="0" x="0 6.3600008 12.720001">200</tspan></text>
<text xml:space="preserve" transform="matrix(1 0 -0 1 164.93032 322.30564)" font-size="10" font-family="DejaVuSans"><tspan y="0" x="0 5.2031257 11.353126 17.483126 21.403126 27.743126 31.634377 37.784379 40.96438 43.91438 53.65438 60.00438 66.12438 70.23438 74.15438 80.28438 86.624378 92.124378 98.274379 101.45438 108.18562 114.31562 120.655628 126.445629 129.62563 133.52562 141.90563">Feature Importance Rank (#)</tspan></text>
<path transform="matrix(1,0,0,-1,-11,336)" d="M47.72 41.96H44.22"/>
<path transform="matrix(1,0,0,-1,-11,336)" stroke-width=".8" stroke-linecap="butt" stroke-linejoin="round" fill="none" stroke="#000000" d="M47.72 41.96H44.22"/>
<text xml:space="preserve" transform="matrix(1 0 -0 1 13.813749 297.83689)" font-size="10" font-family="DejaVuSans"><tspan y="0" x="0 6.3600008 9.540001">0.0</tspan></text>
<path transform="matrix(1,0,0,-1,-11,336)" d="M47.72 89.12362H44.22"/>
<path transform="matrix(1,0,0,-1,-11,336)" stroke-width=".8" stroke-linecap="butt" stroke-linejoin="round" fill="none" stroke="#000000" d="M47.72 89.12362H44.22"/>
<text xml:space="preserve" transform="matrix(1 0 -0 1 13.813749 250.67325)" font-size="10" font-family="DejaVuSans"><tspan y="0" x="0 6.3600008 9.540001">0.5</tspan></text>
<path transform="matrix(1,0,0,-1,-11,336)" d="M47.72 136.28723H44.22"/>
<path transform="matrix(1,0,0,-1,-11,336)" stroke-width=".8" stroke-linecap="butt" stroke-linejoin="round" fill="none" stroke="#000000" d="M47.72 136.28723H44.22"/>
<text xml:space="preserve" transform="matrix(1 0 -0 1 13.813749 203.50965)" font-size="10" font-family="DejaVuSans"><tspan y="0" x="0 6.3600008 9.540001">1.0</tspan></text>
<path transform="matrix(1,0,0,-1,-11,336)" d="M47.72 183.45085H44.22"/>
<path transform="matrix(1,0,0,-1,-11,336)" stroke-width=".8" stroke-linecap="butt" stroke-linejoin="round" fill="none" stroke="#000000" d="M47.72 183.45085H44.22"/>
<text xml:space="preserve" transform="matrix(1 0 -0 1 13.813749 156.34603)" font-size="10" font-family="DejaVuSans"><tspan y="0" x="0 6.3600008 9.540001">1.5</tspan></text>
<path transform="matrix(1,0,0,-1,-11,336)" d="M47.72 230.61447H44.22"/>
<path transform="matrix(1,0,0,-1,-11,336)" stroke-width=".8" stroke-linecap="butt" stroke-linejoin="round" fill="none" stroke="#000000" d="M47.72 230.61447H44.22"/>
<text xml:space="preserve" transform="matrix(1 0 -0 1 13.813749 109.1824)" font-size="10" font-family="DejaVuSans"><tspan y="0" x="0 6.3600008 9.540001">2.0</tspan></text>
<path transform="matrix(1,0,0,-1,-11,336)" d="M47.72 277.7781H44.22"/>
<path transform="matrix(1,0,0,-1,-11,336)" stroke-width=".8" stroke-linecap="butt" stroke-linejoin="round" fill="none" stroke="#000000" d="M47.72 277.7781H44.22"/>
<text xml:space="preserve" transform="matrix(1 0 -0 1 13.813749 62.01877)" font-size="10" font-family="DejaVuSans"><tspan y="0" x="0 6.3600008 9.540001">2.5</tspan></text>
<path transform="matrix(1,0,0,-1,-11,336)" d="M47.72 324.9417H44.22"/>
<path transform="matrix(1,0,0,-1,-11,336)" stroke-width=".8" stroke-linecap="butt" stroke-linejoin="round" fill="none" stroke="#000000" d="M47.72 324.9417H44.22"/>
<text xml:space="preserve" transform="matrix(1 0 -0 1 13.813749 14.855164)" font-size="10" font-family="DejaVuSans"><tspan y="0" x="0 6.3600008 9.540001">3.0</tspan></text>
<text xml:space="preserve" transform="matrix(0 -1 1 0 7.7356245 219.03406)" font-size="10" font-family="DejaVuSans"><tspan y="0" x="0 9.5 12.68 18.800002 22.320002 25.500002 31.820002 38.160005 42.08 45.971254 52.09125 58.441255 64.36125 67.54125 75.29125 81.42125 84.20125 90.541248 93.721248 100.041248 105.96124 112.31124 115.09124 121.22124 124.001239 130.34123 136.49123">% of Entropy Gain Explained</tspan></text>
<path transform="matrix(1,0,0,-1,-11,336)" stroke-width=".8" stroke-linecap="square" stroke-miterlimit="10" stroke-linejoin="miter" fill="none" stroke="#000000" d="M47.72 41.96V334.8"/>
<path transform="matrix(1,0,0,-1,-11,336)" stroke-width=".8" stroke-linecap="square" stroke-miterlimit="10" stroke-linejoin="miter" fill="none" stroke="#000000" d="M450 41.96V334.8"/>
<path transform="matrix(1,0,0,-1,-11,336)" stroke-width=".8" stroke-linecap="square" stroke-miterlimit="10" stroke-linejoin="miter" fill="none" stroke="#000000" d="M47.72 41.96H450"/>
<path transform="matrix(1,0,0,-1,-11,336)" stroke-width=".8" stroke-linecap="square" stroke-miterlimit="10" stroke-linejoin="miter" fill="none" stroke="#000000" d="M47.72 334.8H450"/>
<g>
<path transform="matrix(1,0,0,-1,-11,336)" d="M325.53126 268.03437H443C444.33335 268.03437 445 268.70106 445 270.03437V327.8C445 329.13334 444.33335 329.8 443 329.8H325.53126C324.1979 329.8 323.53126 329.13334 323.53126 327.8V270.03437C323.53126 268.70106 324.1979 268.03437 325.53126 268.03437Z" fill="#ffffff" fill-opacity=".8"/>
<path transform="matrix(1,0,0,-1,-11,336)" stroke-width="1" stroke-linecap="butt" stroke-miterlimit="10" stroke-linejoin="miter" fill="none" stroke="#d5d6d5" stroke-opacity=".8" d="M325.53126 268.03437H443C444.33335 268.03437 445 268.70106 445 270.03437V327.8C445 329.13334 444.33335 329.8 443 329.8H325.53126C324.1979 329.8 323.53126 329.13334 323.53126 327.8V270.03437C323.53126 268.70106 324.1979 268.03437 325.53126 268.03437Z"/>
</g>
<text xml:space="preserve" transform="matrix(1 0 -0 1 336.64064 17.793763)" font-size="10" font-family="DejaVuSans"><tspan y="0" x="0 6.4237506 13.203751 19.95375 24.733752 31.853753 36.783754 43.56375 47.04375 52.67625 59.19625 66.356258">Feature Type</tspan></text>
<path transform="matrix(1,0,0,-1,-11,336)" stroke-width="4" stroke-linecap="square" stroke-linejoin="round" fill="none" stroke="#ffa500" d="M327.53126 306.95625H337.53126 347.53126"/>
<text xml:space="preserve" transform="matrix(1 0 -0 1 344.53126 32.543764)" font-size="10" font-family="DejaVuSans"><tspan y="0" x="0 6.3500006 10.27 16.400002 20.320002 23.100003 28.600003 31.780003 36.983129 43.13313 49.26313 53.18313 59.52313 63.41438 69.56438">Static Features</tspan></text>
<path transform="matrix(1,0,0,-1,-11,336)" stroke-width="4" stroke-linecap="square" stroke-linejoin="round" fill="none" stroke="#0000ff" d="M327.53126 292.28437H337.53126 347.53126"/>
<text xml:space="preserve" transform="matrix(1 0 -0 1 344.53126 47.215639)" font-size="10" font-family="DejaVuSans"><tspan y="0" x="0 8.63 14.75 18.67 21.45 27.570002 33.910005 37.090005 42.29313 48.44313 54.57313 58.493135 64.83313 68.72438 74.87438">Motion Features</tspan></text>
<path transform="matrix(1,0,0,-1,-11,336)" stroke-width="4" stroke-linecap="square" stroke-linejoin="round" fill="none" stroke="#008000" d="M327.53126 277.6125H337.53126 347.53126"/>
<text xml:space="preserve" transform="matrix(1 0 -0 1 344.53126 61.887514)" font-size="10" font-family="DejaVuSans"><tspan y="0" x="0 6.98 13.1 19.44 23.36 29.338126 35.258127 39.178125 42.358125 47.56125 53.71125 59.84125 63.761255 70.10126 73.99251 80.14251">Context Features</tspan></text>
</g>
</svg>
